<svg width="31" height="30" viewBox="0 0 31 30" fill="none" xmlns="http://www.w3.org/2000/svg">
<path d="M17.9715 10.8262C16.693 8.30302 15.8012 4.2708 15.5624 0C15.3236 4.2708 14.432 8.30302 13.1535 10.8262C12.8087 11.4979 12.0602 12.2462 11.3887 12.591C8.86552 13.8695 4.83308 14.7613 0.5625 15.0001C4.8333 15.2389 8.86575 16.1305 11.3887 17.409C12.0604 17.754 12.8087 18.5023 13.1535 19.1738C14.432 21.697 15.3238 25.7292 15.5624 30C15.8012 25.7292 16.6927 21.697 17.9715 19.1738C18.3165 18.5021 19.0648 17.7538 19.7363 17.409C22.2595 16.1305 26.2919 15.2387 30.5625 15.0001C26.2917 14.7613 22.2593 13.8698 19.7363 12.591C19.0646 12.2462 18.3163 11.4979 17.9715 10.8262Z" fill="#C6A056"/>
</svg>
