<svg width="252" height="30" viewBox="0 0 252 30" fill="none" xmlns="http://www.w3.org/2000/svg">
<path d="M6.11483 22.222C4.21782 22.222 2.72443 21.6973 1.63466 20.6479C0.544886 19.5985 0 18.0311 0 15.9457V7.87332H3.10787V15.865C3.10787 17.022 3.37695 17.8965 3.91511 18.4885C4.45327 19.067 5.19996 19.3563 6.15519 19.3563C7.11043 19.3563 7.85712 19.0738 8.39528 18.5087C8.93344 17.9436 9.20252 17.096 9.20252 15.9659V7.87332H12.3104V15.8448C12.3104 16.9211 12.1624 17.8562 11.8664 18.65C11.5839 19.4437 11.1735 20.1097 10.6354 20.6479C10.0972 21.1726 9.44469 21.5695 8.67782 21.8386C7.91094 22.0942 7.05661 22.222 6.11483 22.222Z" fill="#231F20"/>
<path d="M19.5122 7.87332H22.62V19.1747H29.6632V22H19.5122V7.87332Z" fill="#231F20"/>
<path d="M39.3327 10.739H35.0342V7.87332H46.7391V10.739H42.4406V22H39.3327V10.739Z" fill="#231F20"/>
<path d="M59.4216 14.7349C60.1885 14.7349 60.7737 14.5532 61.1773 14.19C61.5944 13.8267 61.8029 13.3424 61.8029 12.7369V12.6966C61.8029 12.0239 61.5877 11.5194 61.1572 11.183C60.7266 10.8467 60.1279 10.6785 59.361 10.6785H56.2734V14.7349H59.4216ZM53.1655 7.87332H59.6234C61.4128 7.87332 62.7851 8.35094 63.7403 9.30617C64.5476 10.1134 64.9512 11.1897 64.9512 12.5351V12.5755C64.9512 13.7191 64.6686 14.6541 64.1036 15.3806C63.552 16.0937 62.8254 16.6184 61.924 16.9548L65.375 22H61.7424L58.7153 17.4795H56.2734V22H53.1655V7.87332Z" fill="#231F20"/>
<path d="M79.8983 16.087L78.0215 11.5059L76.1447 16.087H79.8983ZM76.629 7.77242H79.4947L85.549 22H82.2999L81.0083 18.8316H75.0347L73.7431 22H70.5747L76.629 7.77242Z" fill="#231F20"/>
<path d="M112.498 10.8262C111.22 8.30302 110.328 4.2708 110.089 0C109.85 4.2708 108.959 8.30302 107.68 10.8262C107.336 11.4979 106.587 12.2462 105.916 12.591C103.392 13.8695 99.3599 14.7613 95.0893 15.0001C99.3601 15.2389 103.393 16.1305 105.916 17.409C106.587 17.754 107.336 18.5023 107.68 19.1738C108.959 21.697 109.851 25.7292 110.089 30C110.328 25.7292 111.22 21.697 112.498 19.1738C112.843 18.5021 113.592 17.7538 114.263 17.409C116.786 16.1305 120.819 15.2387 125.089 15.0001C120.818 14.7613 116.786 13.8698 114.263 12.591C113.591 12.2462 112.843 11.4979 112.498 10.8262Z" fill="#C6A056"/>
<path d="M135.222 7.87332H145.878V10.6381H138.31V13.5038H144.969V16.2686H138.31V19.2352H145.978V22H135.222V7.87332Z" fill="#231F20"/>
<path d="M157.803 22.2018C156.727 22.2018 155.67 22.0202 154.635 21.6569C153.599 21.2802 152.657 20.7084 151.809 19.9415L153.646 17.7418C154.291 18.2665 154.951 18.6836 155.623 18.993C156.31 19.3025 157.056 19.4572 157.863 19.4572C158.509 19.4572 159.007 19.3428 159.357 19.1141C159.72 18.872 159.902 18.5423 159.902 18.1253V18.0849C159.902 17.8831 159.861 17.7082 159.781 17.5602C159.713 17.3987 159.572 17.2507 159.357 17.1162C159.155 16.9817 158.866 16.8471 158.489 16.7126C158.126 16.578 157.648 16.4368 157.056 16.2888C156.343 16.1139 155.697 15.9188 155.119 15.7035C154.54 15.4883 154.049 15.2259 153.646 14.9165C153.242 14.5936 152.926 14.1967 152.697 13.7258C152.482 13.2549 152.374 12.6697 152.374 11.9701V11.9297C152.374 11.2839 152.495 10.7054 152.737 10.1941C152.98 9.66943 153.316 9.21872 153.747 8.84201C154.191 8.4653 154.715 8.17604 155.321 7.97423C155.926 7.77242 156.592 7.67151 157.319 7.67151C158.355 7.67151 159.303 7.82623 160.164 8.13568C161.039 8.44512 161.839 8.8891 162.566 9.46762L160.951 11.8086C160.319 11.3781 159.7 11.0417 159.094 10.7996C158.489 10.5439 157.884 10.4161 157.278 10.4161C156.673 10.4161 156.215 10.5372 155.906 10.7794C155.61 11.0081 155.462 11.2974 155.462 11.6472V11.6875C155.462 11.9162 155.502 12.1181 155.583 12.293C155.677 12.4544 155.839 12.6024 156.067 12.7369C156.296 12.8715 156.606 12.9993 156.996 13.1204C157.399 13.2415 157.904 13.3827 158.509 13.5442C159.222 13.7325 159.855 13.9478 160.406 14.19C160.971 14.4187 161.442 14.7012 161.819 15.0376C162.209 15.3605 162.498 15.7439 162.687 16.1879C162.889 16.6319 162.989 17.1633 162.989 17.7822V17.8225C162.989 18.5221 162.862 19.1478 162.606 19.6994C162.35 20.2375 161.994 20.695 161.536 21.0717C161.079 21.4349 160.534 21.7175 159.902 21.9193C159.269 22.1076 158.57 22.2018 157.803 22.2018Z" fill="#231F20"/>
<path d="M173.012 10.739H168.714V7.87332H180.419V10.739H176.12V22H173.012V10.739Z" fill="#231F20"/>
<path d="M194.958 16.087L193.081 11.5059L191.204 16.087H194.958ZM191.688 7.77242H194.554L200.608 22H197.359L196.068 18.8316H190.094L188.803 22H185.634L191.688 7.77242Z" fill="#231F20"/>
<path d="M210.115 10.739H205.816V7.87332H217.521V10.739H213.222V22H210.115V10.739Z" fill="#231F20"/>
<path d="M223.947 7.87332H234.603V10.6381H227.035V13.5038H233.695V16.2686H227.035V19.2352H234.704V22H223.947V7.87332Z" fill="#231F20"/>
<path d="M246.528 22.2018C245.452 22.2018 244.396 22.0202 243.36 21.6569C242.324 21.2802 241.382 20.7084 240.534 19.9415L242.371 17.7418C243.017 18.2665 243.676 18.6836 244.349 18.993C245.035 19.3025 245.782 19.4572 246.589 19.4572C247.235 19.4572 247.732 19.3428 248.082 19.1141C248.445 18.872 248.627 18.5423 248.627 18.1253V18.0849C248.627 17.8831 248.587 17.7082 248.506 17.5602C248.439 17.3987 248.297 17.2507 248.082 17.1162C247.88 16.9817 247.591 16.8471 247.214 16.7126C246.851 16.578 246.373 16.4368 245.782 16.2888C245.068 16.1139 244.423 15.9188 243.844 15.7035C243.266 15.4883 242.775 15.2259 242.371 14.9165C241.967 14.5936 241.651 14.1967 241.422 13.7258C241.207 13.2549 241.1 12.6697 241.1 11.9701V11.9297C241.1 11.2839 241.221 10.7054 241.463 10.1941C241.705 9.66943 242.041 9.21872 242.472 8.84201C242.916 8.4653 243.441 8.17604 244.046 7.97423C244.651 7.77242 245.317 7.67151 246.044 7.67151C247.08 7.67151 248.028 7.82623 248.889 8.13568C249.764 8.44512 250.564 8.8891 251.291 9.46762L249.676 11.8086C249.044 11.3781 248.425 11.0417 247.82 10.7996C247.214 10.5439 246.609 10.4161 246.004 10.4161C245.398 10.4161 244.941 10.5372 244.631 10.7794C244.335 11.0081 244.187 11.2974 244.187 11.6472V11.6875C244.187 11.9162 244.228 12.1181 244.308 12.293C244.402 12.4544 244.564 12.6024 244.793 12.7369C245.021 12.8715 245.331 12.9993 245.721 13.1204C246.125 13.2415 246.629 13.3827 247.235 13.5442C247.948 13.7325 248.58 13.9478 249.132 14.19C249.697 14.4187 250.168 14.7012 250.544 15.0376C250.934 15.3605 251.224 15.7439 251.412 16.1879C251.614 16.6319 251.715 17.1633 251.715 17.7822V17.8225C251.715 18.5221 251.587 19.1478 251.331 19.6994C251.076 20.2375 250.719 20.695 250.262 21.0717C249.804 21.4349 249.259 21.7175 248.627 21.9193C247.995 22.1076 247.295 22.2018 246.528 22.2018Z" fill="#231F20"/>
</svg>
